# xmcd
#
# Track frame offsets:
#   150
#   15199
#   28559
#   48863
#   67526
#   88355
#   103273
#   119760
#   145915
#   165791
#   177244
#   188029
#   200448
#   223159
#   236983
#   253833
#   270619
#   284815
#   303764
#   322782
#   329544
#   344049
#
# Disc length: 4742 seconds
#
# Revision: 0
# Processed by: cddbd v1.5.1PL0 Copyright (c) Steve Scherf et al.
# Submitted via: GXTranscoder 2.0.1939
#
DISCID=47128416
DTITLE=John Mayall - Selection
DYEAR=1900
DGENRE=Blues
TTITLE0=Brand New Start
TTITLE1=Another Kinda Love
TTITLE2=Jenny
TTITLE3=Broken Wings
TTITLE4=Chicago Line
TTITLE5=Double Trouble
TTITLE6=Down The Line
TTITLE7=Have You Heard
TTITLE8=l Can Quit You Baby
TTITLE9=Little Girl
TTITLE10=Man Of Stone
TTITLE11=Mediane Man
TTITLE12=My Time After A While
TTITLE13=Rambling On My Mind
TTITLE14=Sandy
TTITLE15=Sonny Boy Blow
TTITLE16=Streamline
TTITLE17=Tears In My Eyes
TTITLE18=The DeathOf J.BIenoir
TTITLE19=Theres Always Work
TTITLE20=Third Degree
TTITLE21=TopOfTheHill
EXTD=
EXTT0=
EXTT1=
EXTT2=
EXTT3=
EXTT4=
EXTT5=
EXTT6=
EXTT7=
EXTT8=
EXTT9=
EXTT10=
EXTT11=
EXTT12=
EXTT13=
EXTT14=
EXTT15=
EXTT16=
EXTT17=
EXTT18=
EXTT19=
EXTT20=
EXTT21=
PLAYORDER=
